<?xml version="1.0" standalone="no"?>
<!DOCTYPE svg PUBLIC "-//W3C//DTD SVG 20010904//EN"
 "http://www.w3.org/TR/2001/REC-SVG-20010904/DTD/svg10.dtd">
<svg version="1.0" xmlns="http://www.w3.org/2000/svg"
 width="512.000000pt" height="512.000000pt" viewBox="0 0 512.000000 512.000000"
 preserveAspectRatio="xMidYMid meet">

<g transform="translate(0.000000,512.000000) scale(0.100000,-0.100000)"
fill="#000000" stroke="none">
<path d="M51 5106 c-47 -26 -50 -45 -51 -304 0 -256 5 -288 47 -308 10 -5 162
-11 337 -14 l319 -5 243 -1090 c134 -600 244 -1093 244 -1097 0 -4 -24 -19
-53 -33 -380 -187 -516 -667 -291 -1032 57 -91 180 -208 270 -255 132 -69 186
-80 406 -86 l198 -4 -48 -52 c-255 -280 -124 -715 245 -811 159 -42 336 9 458
130 190 189 195 481 11 682 l-48 53 545 0 546 0 -49 -50 c-27 -28 -65 -83 -85
-123 -90 -184 -59 -396 80 -545 124 -134 299 -188 473 -147 85 20 148 54 215
115 109 99 159 215 159 365 0 135 -44 243 -136 339 l-45 46 270 0 c293 0 314
3 337 55 8 18 12 101 12 266 0 261 -4 284 -55 307 -20 9 -401 12 -1601 12
l-1575 0 -24 25 c-14 13 -26 32 -26 42 -4 63 14 86 85 109 146 47 267 148 327
273 l34 70 935 1 c1035 0 1002 -2 1129 65 113 60 212 170 255 285 9 25 65 214
125 420 l108 375 84 31 c157 57 256 120 370 233 336 337 384 848 116 1246 -52
77 -175 200 -252 252 -341 229 -769 229 -1110 0 -77 -52 -201 -176 -250 -249
l-38 -58 -189 0 c-206 0 -234 -6 -256 -55 -23 -51 -7 -107 39 -131 21 -10 67
-14 172 -14 l143 0 -18 -72 c-10 -40 -22 -118 -25 -174 -26 -435 247 -839 662
-981 83 -28 218 -53 287 -53 42 0 49 -2 44 -17 -3 -10 -48 -169 -101 -353 -53
-184 -107 -353 -120 -376 -31 -53 -104 -120 -163 -147 l-47 -22 -935 -3 -935
-2 -239 1077 c-132 593 -242 1088 -244 1101 l-4 22 346 0 c376 0 390 2 414 55
15 33 15 57 0 90 -24 54 -36 55 -436 55 l-370 0 -16 67 c-50 199 -204 352
-398 398 -87 20 -820 21 -857 1z m881 -219 c67 -33 140 -109 162 -170 9 -23
138 -589 287 -1257 296 -1330 287 -1276 239 -1388 -34 -79 -119 -153 -209
-182 -88 -28 -141 -62 -179 -115 -87 -120 -70 -281 40 -380 90 -81 -35 -75
1670 -75 l1518 0 0 -120 0 -120 -1527 0 c-1683 0 -1593 -3 -1716 62 -175 94
-278 263 -279 459 0 145 44 261 140 361 67 71 127 110 216 142 79 29 102 47
111 86 4 18 -85 434 -260 1221 -146 657 -268 1202 -271 1212 -3 10 -20 27 -37
38 -30 18 -53 19 -334 19 l-303 0 0 120 0 121 338 -3 337 -3 57 -28z m3403 9
c33 -9 96 -34 140 -55 164 -78 281 -194 361 -356 63 -129 79 -196 79 -345 0
-149 -16 -216 -79 -345 -79 -159 -192 -272 -351 -351 -129 -63 -196 -79 -345
-79 -149 0 -216 16 -345 79 -162 80 -278 197 -356 361 -59 122 -74 190 -74
335 0 145 15 213 74 335 108 225 303 377 551 430 81 18 262 13 345 -9z m-2177
-4147 c99 -49 152 -129 159 -239 9 -119 -55 -228 -166 -282 -65 -32 -177 -32
-242 0 -178 87 -222 307 -94 460 14 17 53 45 87 61 50 25 73 31 128 31 55 0
78 -6 128 -31z m1707 4 c139 -73 199 -248 131 -387 -29 -60 -73 -104 -139
-138 -60 -32 -184 -32 -244 0 -66 35 -110 78 -140 139 -76 156 9 349 177 404
45 15 171 4 215 -18z"/>
<path d="M4091 4566 c-43 -24 -50 -52 -51 -193 l0 -133 -130 0 c-142 0 -173
-8 -196 -51 -27 -52 -8 -115 41 -137 16 -7 76 -12 155 -12 l130 0 0 -130 c0
-144 9 -177 55 -198 51 -23 107 -7 131 39 10 20 14 65 14 159 l0 130 130 0
c144 0 177 9 198 55 23 51 7 107 -39 131 -20 10 -65 14 -159 14 l-130 0 0 130
c0 79 -5 139 -12 155 -22 48 -88 68 -137 41z"/>
<path d="M2441 4626 c-87 -48 -50 -186 49 -186 51 0 100 49 100 99 0 75 -83
124 -149 87z"/>
</g>
</svg>
