<?xml version="1.0" standalone="no"?>
<!DOCTYPE svg PUBLIC "-//W3C//DTD SVG 20010904//EN"
 "http://www.w3.org/TR/2001/REC-SVG-20010904/DTD/svg10.dtd">
<svg version="1.0" xmlns="http://www.w3.org/2000/svg"
 width="512.000000pt" height="512.000000pt" viewBox="0 0 512.000000 512.000000"
 preserveAspectRatio="xMidYMid meet">

<g transform="translate(0.000000,512.000000) scale(0.100000,-0.100000)"
fill="#000000" stroke="none">
<path d="M1493 5106 c-305 -59 -551 -250 -694 -541 -82 -167 -129 -413 -114
-590 32 -372 189 -660 583 -1065 l141 -144 -36 -39 c-19 -22 -47 -65 -62 -96
-22 -47 -26 -70 -26 -141 0 -149 56 -238 274 -434 192 -172 198 -176 236 -176
29 0 54 18 180 131 129 114 148 129 163 117 9 -7 95 -80 190 -163 96 -82 187
-156 203 -164 41 -20 70 -4 194 106 55 48 215 187 355 308 698 599 947 848
1133 1130 155 236 219 440 221 710 l2 150 77 78 c136 137 177 219 177 352 0
90 -21 152 -71 209 -100 113 -269 136 -393 54 l-46 -30 -31 23 c-17 12 -59 30
-92 41 -34 10 -78 29 -97 42 -412 271 -1015 148 -1350 -275 -23 -30 -46 -54
-50 -54 -3 0 -36 35 -72 79 -154 184 -354 309 -589 366 -110 27 -308 35 -406
16z m322 -171 c261 -46 495 -216 648 -471 40 -66 50 -74 101 -74 42 0 52 9
118 110 107 163 236 281 395 360 127 63 214 83 373 84 136 0 202 -11 294 -49
l37 -16 -32 -36 c-56 -65 -74 -117 -74 -218 0 -83 3 -96 34 -160 39 -79 133
-182 313 -341 131 -117 161 -131 209 -95 17 13 33 20 36 18 2 -3 0 -47 -6 -99
-48 -402 -289 -730 -981 -1334 -435 -379 -710 -614 -720 -614 -6 0 -74 55
-151 122 -77 68 -148 129 -158 136 -16 11 -16 16 13 74 27 54 31 75 34 158 4
91 2 97 -30 160 -56 108 -154 166 -279 163 -60 -1 -146 -32 -174 -63 -15 -17
-19 -16 -71 15 -30 19 -73 36 -94 40 -32 5 -62 30 -202 168 -316 313 -491 567
-557 805 -107 391 27 815 325 1028 173 123 377 167 599 129z m2211 -174 c26
-12 53 -36 73 -65 53 -76 120 -73 170 8 13 20 40 44 67 57 39 19 51 20 83 11
20 -7 50 -25 66 -42 23 -24 30 -41 33 -88 7 -100 -37 -166 -224 -332 l-112
-100 -94 84 c-195 174 -247 246 -248 337 0 56 30 106 80 131 44 22 55 22 106
-1z m-2370 -2142 c18 -11 43 -36 54 -55 26 -40 48 -54 88 -54 24 0 39 11 72
50 50 60 85 80 138 80 101 0 154 -124 101 -240 -20 -45 -169 -200 -272 -284
l-47 -38 -78 68 c-238 211 -297 312 -245 421 32 69 122 94 189 52z"/>
<path d="M303 3482 c-101 -36 -173 -116 -192 -216 -5 -28 -33 -350 -62 -716
-56 -723 -56 -725 -6 -833 15 -32 198 -266 477 -611 249 -308 462 -576 474
-595 19 -32 22 -56 26 -211 6 -196 13 -218 77 -267 l36 -28 376 -3 c207 -2
391 0 409 3 44 8 97 57 117 108 14 38 16 96 13 487 -3 433 -4 447 -26 508 -12
35 -35 83 -50 107 -27 43 -839 979 -962 1109 -71 75 -135 112 -212 122 -27 4
-48 9 -48 13 0 3 -15 189 -34 412 -30 360 -37 411 -57 454 -64 136 -221 205
-356 157z m168 -188 c16 -15 33 -41 38 -58 5 -17 24 -211 42 -432 l32 -401
-46 -43 c-26 -23 -59 -68 -74 -99 -23 -47 -28 -69 -28 -136 0 -125 13 -145
319 -490 147 -165 280 -312 296 -327 82 -76 188 29 118 117 -12 15 -140 161
-285 323 -287 322 -297 337 -273 414 27 92 126 141 207 102 28 -14 170 -169
516 -564 381 -433 485 -558 510 -610 l32 -65 3 -428 3 -427 -343 2 -343 3 -5
165 c-5 160 -6 167 -36 230 -23 46 -159 222 -474 610 -243 300 -453 561 -466
580 -50 76 -50 72 5 770 56 720 56 716 77 748 37 56 125 64 175 16z"/>
<path d="M4633 3482 c-87 -31 -144 -85 -179 -168 -11 -25 -27 -166 -50 -443
-19 -223 -34 -409 -34 -413 0 -5 -10 -8 -23 -8 -40 0 -122 -29 -165 -57 -45
-31 -975 -1088 -1027 -1169 -19 -28 -44 -80 -57 -115 -22 -63 -23 -74 -26
-504 -4 -470 -2 -490 45 -546 49 -58 56 -59 468 -59 349 0 378 1 413 19 85 44
101 88 102 287 0 136 2 155 23 195 12 24 214 280 447 569 234 289 442 547 462
573 45 60 77 140 84 216 3 31 -19 362 -50 738 -59 741 -57 728 -125 806 -71
80 -207 115 -308 79z m140 -166 c69 -28 65 -4 125 -751 59 -736 58 -729 8
-805 -13 -19 -223 -280 -466 -580 -313 -386 -451 -564 -473 -610 -31 -63 -32
-70 -37 -230 l-5 -165 -343 -3 -343 -2 3 427 3 428 30 62 c23 48 135 183 499
598 258 295 482 547 498 560 33 28 83 40 127 30 43 -9 96 -62 111 -111 23 -77
12 -95 -246 -384 -335 -376 -334 -375 -334 -416 0 -76 82 -110 140 -56 16 15
149 162 295 327 306 345 320 367 320 490 0 67 -4 89 -28 136 -15 31 -48 76
-74 99 l-46 43 32 401 c18 221 37 415 42 432 10 31 51 77 79 87 26 9 49 7 83
-7z"/>
</g>
</svg>
