<?xml version="1.0" standalone="no"?>
<!DOCTYPE svg PUBLIC "-//W3C//DTD SVG 20010904//EN"
 "http://www.w3.org/TR/2001/REC-SVG-20010904/DTD/svg10.dtd">
<svg version="1.0" xmlns="http://www.w3.org/2000/svg"
 width="1280.000000pt" height="220.000000pt" viewBox="0 0 1280.000000 220.000000"
 preserveAspectRatio="xMidYMid meet">

<g transform="translate(0.000000,220.000000) scale(0.100000,-0.100000)"
fill="#000000" stroke="none">
<path d="M11495 2179 c-175 -22 -384 -108 -532 -218 -321 -240 -483 -646 -418
-1046 71 -436 426 -791 882 -882 118 -23 377 -23 483 1 311 69 560 241 728
500 116 179 171 395 159 625 -33 647 -619 1105 -1302 1020z m371 -319 c231
-59 435 -219 529 -415 59 -123 78 -205 77 -340 0 -185 -52 -345 -157 -483
-246 -325 -760 -406 -1107 -175 -252 167 -384 444 -348 735 45 374 320 644
715 702 58 8 214 -4 291 -24z"/>
<path d="M595 1153 c-280 -538 -529 -1015 -553 -1061 l-44 -82 187 2 186 3
161 308 160 307 496 -2 497 -3 162 -305 162 -305 195 -3 196 -2 -55 102 c-30
57 -281 533 -559 1058 l-505 955 -88 3 -89 3 -509 -978z m759 117 c86 -164
156 -302 156 -305 0 -3 -144 -5 -321 -5 -186 0 -319 4 -317 9 12 32 314 601
319 601 4 0 77 -135 163 -300z"/>
<path d="M3106 2103 c-9 -45 -326 -2067 -326 -2081 0 -9 40 -12 164 -12 162 0
164 0 169 23 3 12 49 299 102 637 52 338 99 623 103 633 6 14 98 -147 364
-635 l356 -653 74 -2 73 -3 360 656 c324 592 361 654 367 628 5 -16 49 -297
98 -624 50 -327 93 -610 96 -628 l6 -32 164 0 c163 0 164 0 164 23 0 12 -72
488 -158 1057 l-158 1035 -79 3 -80 2 -424 -775 c-233 -426 -427 -775 -430
-775 -3 0 -195 348 -427 773 l-420 772 -76 3 -76 3 -6 -28z"/>
<path d="M6877 2068 c-59 -108 -1067 -2047 -1067 -2052 0 -4 82 -6 183 -6
l182 0 160 308 160 307 496 3 496 2 164 -310 164 -310 193 0 c111 0 192 4 190
9 -1 5 -253 482 -558 1060 l-555 1051 -87 0 -87 0 -34 -62z m283 -799 l158
-304 -158 -3 c-87 -1 -233 -1 -323 0 l-164 3 161 307 c88 168 162 305 164 303
2 -1 74 -139 162 -306z"/>
<path d="M8580 1070 l0 -1060 165 0 165 0 0 450 0 450 99 0 100 0 343 -449
343 -450 219 0 c173 -1 216 2 209 12 -6 6 -164 212 -352 457 l-343 444 94 23
c330 83 491 279 491 598 -1 312 -219 519 -603 571 -76 10 -220 14 -517 14
l-413 0 0 -1060z m941 716 c87 -16 124 -33 180 -83 58 -52 82 -105 82 -178 1
-72 -22 -124 -76 -178 -87 -87 -186 -106 -539 -107 l-258 0 0 280 0 280 268 0
c179 -1 292 -5 343 -14z"/>
</g>
</svg>
